<?xml version="1.0" standalone="no"?>
<!DOCTYPE svg PUBLIC "-//W3C//DTD SVG 20010904//EN"
 "http://www.w3.org/TR/2001/REC-SVG-20010904/DTD/svg10.dtd">
<svg version="1.0" xmlns="http://www.w3.org/2000/svg"
 width="1081.000000pt" height="1081.000000pt" viewBox="0 0 1081.000000 1081.000000"
 preserveAspectRatio="xMidYMid meet">

<g transform="translate(0.000000,1081.000000) scale(0.100000,-0.100000)"
fill="#000000" stroke="none">
<path d="M4971 7122 c-19 -15 -45 -122 -181 -732 -88 -393 -160 -728 -160
-743 0 -18 10 -39 29 -58 l29 -29 204 1 203 0 42 60 43 59 -168 0 c-187 0
-202 5 -228 66 -13 32 -7 66 115 614 71 320 137 592 145 605 39 59 45 60 356
60 311 0 317 -1 356 -60 8 -13 74 -285 145 -605 122 -548 128 -582 115 -614
-24 -58 -45 -66 -186 -66 l-125 -1 -42 -59 -43 -60 246 0 246 0 29 29 c19 19
29 40 29 58 0 15 -72 350 -160 743 -136 610 -162 717 -181 732 -19 17 -55 18
-429 18 -374 0 -410 -1 -429 -18z"/>
<path d="M5239 6720 c-94 -62 -144 -186 -121 -296 29 -139 142 -232 283 -234
85 0 145 25 208 87 29 30 52 55 50 57 -2 2 -31 -1 -64 -7 -206 -35 -389 178
-320 373 8 24 14 45 12 47 -2 1 -24 -10 -48 -27z"/>
<path d="M5415 6726 c-13 -13 -29 -43 -35 -66 -20 -73 6 -143 72 -190 34 -25
51 -30 98 -30 133 0 173 94 90 209 -70 96 -171 131 -225 77z"/>
<path d="M5313 6013 c-29 -31 -62 -76 -74 -100 -18 -38 -19 -48 -9 -74 18 -43
47 -59 105 -59 56 0 95 -20 95 -50 0 -12 -19 -32 -47 -51 -53 -35 -123 -99
-123 -111 0 -4 49 -8 109 -8 99 0 110 2 116 19 3 10 24 47 46 81 53 82 58 111
26 144 -13 13 -44 30 -68 36 -67 16 -86 27 -105 55 -16 25 -16 29 8 100 l24
75 -25 0 c-18 0 -41 -17 -78 -57z"/>
</g>
</svg>
